<svg xmlns="http://www.w3.org/2000/svg" width="26" height="26" viewBox="0 0 26 26">
  <defs>
    <style>
      .cls-1 {
        fill: #4661ff;
        stroke: #4661ff;
        stroke-width: 0.3px;
      }

      .cls-2 {
        fill: none;
      }
    </style>
  </defs>
  <g id="组_1052" data-name="组 1052" transform="translate(-325 -30)">
    <g id="警告" transform="translate(327.364 33.545)">
      <path id="路径_1036" data-name="路径 1036" class="cls-1" d="M173.8,128.03h-1.54v-9.9a6.811,6.811,0,0,0-2.059-4.88,7.045,7.045,0,0,0-9.9,0,6.816,6.816,0,0,0-2.059,4.88v9.9H156.7v-9.9a8.189,8.189,0,0,1,.676-3.274,8.411,8.411,0,0,1,1.836-2.679,8.588,8.588,0,0,1,6.036-2.477,8.577,8.577,0,0,1,7.872,5.155,8.238,8.238,0,0,1,.676,3.274Z" transform="translate(-154.736 -109.7)"/>
      <path id="路径_1037" data-name="路径 1037" class="cls-1" d="M89.064,289.027H69.559a.771.771,0,0,1,0-1.542H89.064a.771.771,0,0,1,0,1.542Zm-12.169-3.288a.752.752,0,0,1-.553-.243.778.778,0,0,1,.033-1.089l3.724-3.553H76.608a.757.757,0,0,1-.7-.475.776.776,0,0,1,.161-.838l4.9-5.025a.75.75,0,0,1,1.074,0,.778.778,0,0,1,0,1.091l-3.622,3.71h3.588a.763.763,0,0,1,.707.487.783.783,0,0,1-.185.845l-5.123,4.885A.75.75,0,0,1,76.895,285.739Z" transform="translate(-68.8 -270.611)"/>
    </g>
    <rect id="矩形_743" data-name="矩形 743" class="cls-2" width="26" height="26" transform="translate(325 30)"/>
  </g>
</svg>
