<svg xmlns="http://www.w3.org/2000/svg" viewBox="0 0 17.15 19.5"><defs><style>.cls-1{fill:#4661ff;}</style></defs><title>baojing</title><g id="图层_2" data-name="图层 2"><g id="图层_1-2" data-name="图层 1"><path class="cls-1" d="M13.07,6.47a.81.81,0,0,0,.78,1.07.91.91,0,0,0,.44-.12L16.74,6a.83.83,0,0,0,.38-.94l0,0L17,4.88a.83.83,0,0,0-1.13-.3L13.47,6A.8.8,0,0,0,13.07,6.47Z"/><path class="cls-1" d="M11.23,5.19h0a.87.87,0,0,0,.41.11.83.83,0,0,0,.72-.41l1.41-2.44a.87.87,0,0,0,.11-.63.82.82,0,0,0-1-.62.81.81,0,0,0-.55.41L10.93,4.06a.86.86,0,0,0-.09.63A.85.85,0,0,0,11.23,5.19Z"/><path class="cls-1" d="M2.88,7.42a.76.76,0,0,0,.44.13l.18,0A.85.85,0,0,0,4,7.16.83.83,0,0,0,3.76,6L1.27,4.58a.8.8,0,0,0-.62-.1.77.77,0,0,0-.52.36A.81.81,0,0,0,0,5.46.84.84,0,0,0,.38,6Z"/><path class="cls-1" d="M14.55,14.68h-.72v-4A5.24,5.24,0,0,0,8.59,5.43h0a5.24,5.24,0,0,0-5.23,5.23v4H2.62a2.41,2.41,0,1,0,0,4.82H14.55a2.41,2.41,0,0,0,0-4.82ZM5,14.68v-4a3.59,3.59,0,0,1,7.17,0v4Zm10.31,2.41a.76.76,0,0,1-.76.75H2.62a.76.76,0,1,1,0-1.51H14.55A.76.76,0,0,1,15.31,17.09Z"/><path class="cls-1" d="M4.81,4.88a.81.81,0,0,0,.49.4.67.67,0,0,0,.24,0,.86.86,0,0,0,.39-.09.84.84,0,0,0,.4-.49.83.83,0,0,0-.08-.68L4.83,1.6a.84.84,0,0,0-.52-.36.8.8,0,0,0-.62.11A.83.83,0,0,0,3.4,2.44Z"/><path class="cls-1" d="M8.58,4.48h0a.83.83,0,0,0,.82-.83V.83a.83.83,0,1,0-1.65,0V3.65a.82.82,0,0,0,.82.83Zm0-.25Z"/></g></g></svg>