<svg xmlns="http://www.w3.org/2000/svg" width="14.366" height="17" viewBox="0 0 14.366 17">
  <path id="tixing" d="M115.648,37.443V34.291a5.793,5.793,0,0,0-4.43-5.707,1.675,1.675,0,0,0-3.272.08,5.88,5.88,0,0,0-4.15,5.627v2.953a2.985,2.985,0,0,0-1.4,2.514v.04a2.863,2.863,0,0,0,.239,1.157l.04.04a.988.988,0,0,0,.639.559.886.886,0,0,0,.359.04h11.852a.506.506,0,0,0,.239-.04.945.945,0,0,0,.758-.559,3.054,3.054,0,0,0,.239-1.2v-.04a2.893,2.893,0,0,0-1.117-2.315Zm-4.709,5.068h-3.153a1.8,1.8,0,1,0,3.592,0Z" transform="translate(-102.4 -27.307)" fill="#646465"/>
</svg>
