<svg xmlns="http://www.w3.org/2000/svg" width="12.844" height="14.6" viewBox="0 0 12.844 14.6">
  <defs>
    <style>
      .cls-1 {
        fill: #666;
        stroke: #666;
        stroke-width: 0.6px;
      }
    </style>
  </defs>
  <g id="组_644" data-name="组 644" transform="translate(0.3 0.3)">
    <path id="路径_936" data-name="路径 936" class="cls-1" d="M1857.567,334.6a.365.365,0,0,0-.518,0l-.919.919h-1.342v-3.6a.366.366,0,0,0-.733,0v7.927a.366.366,0,0,0,.733,0v-3.591h1.493a.366.366,0,0,0,.259-.107l1.027-1.026A.365.365,0,0,0,1857.567,334.6Z" transform="translate(-1854.055 -326.208)"/>
    <g id="组_635" data-name="组 635" transform="translate(0.37 3.299)">
      <path id="路径_937" data-name="路径 937" class="cls-1" d="M1861.5,335.9a.363.363,0,0,1-.259-.107l-6.553-6.536a.367.367,0,0,1,.518-.519l6.553,6.536a.367.367,0,0,1-.259.626Z" transform="translate(-1854.583 -328.633)"/>
    </g>
    <g id="组_636" data-name="组 636" transform="translate(2.055)">
      <path id="路径_938" data-name="路径 938" class="cls-1" d="M1863.536,332.963a.814.814,0,0,1-.593-.236l-5.764-5.764a.645.645,0,0,1-.188-.461.744.744,0,0,1,.222-.522l1.84-1.84a.747.747,0,0,1,.522-.221h0a.64.64,0,0,1,.459.188l6.9,6.9a.7.7,0,0,1-.034.982.368.368,0,0,1-.158.093l-3.008.866A1.087,1.087,0,0,1,1863.536,332.963Zm-4.019-8.339-1.786,1.875,5.73,5.71a.123.123,0,0,0,.109.023l2.774-.8Z" transform="translate(-1856.991 -323.919)"/>
    </g>
  </g>
</svg>
