<svg xmlns="http://www.w3.org/2000/svg" width="20" height="20" viewBox="0 0 20 20">
  <defs>
    <style>
      .cls-1 {
        fill: #ffaa43;
      }

      .cls-2 {
        fill: none;
      }
    </style>
  </defs>
  <g id="组_1078" data-name="组 1078" transform="translate(-26 -150)">
    <g id="组_1074" data-name="组 1074" transform="translate(-32 -138.782)">
      <path id="减去_2" data-name="减去 2" class="cls-1" d="M14.13,10.353H1.069A1.076,1.076,0,0,1,0,9.284V0H15.2V9.284a1.074,1.074,0,0,1-1.069,1.069Zm-2.689-6.67a.981.981,0,1,0,.981.981A.982.982,0,0,0,11.441,3.683Zm-3.923,0a.981.981,0,1,0,.981.981A.982.982,0,0,0,7.518,3.683Zm-3.759,0a.981.981,0,1,0,.981.981A.982.982,0,0,0,3.759,3.683Z" transform="translate(60 296.451)"/>
      <path id="路径_1055" data-name="路径 1055" class="cls-1" d="M90.816,47.817h-15.2V46.255a1.571,1.571,0,0,1,1.563-1.563h4.473a1.565,1.565,0,0,1,3.127,0h4.473a1.571,1.571,0,0,1,1.563,1.563Z" transform="translate(-15.617 247.592)"/>
    </g>
    <rect id="矩形_755" data-name="矩形 755" class="cls-2" width="20" height="20" transform="translate(26 150)"/>
  </g>
</svg>
