<?xml version="1.0" standalone="no"?><!DOCTYPE svg PUBLIC "-//W3C//DTD SVG 1.1//EN" "http://www.w3.org/Graphics/SVG/1.1/DTD/svg11.dtd"><svg t="1598250752926" class="icon" viewBox="0 0 1024 1024" version="1.1" xmlns="http://www.w3.org/2000/svg" p-id="4515" xmlns:xlink="http://www.w3.org/1999/xlink" width="200" height="200"><defs><style type="text/css"></style></defs><path d="M870.324 691.708c-33.204-40.348-78.699-97.447-78.699-155.734V350.45c0-159.852-119.747-289.907-272.767-289.907-153.04 0-271.833 130.054-271.833 289.907v185.524c0 57.283-49.366 111.443-80.659 153.46-28.143 37.735-50.367 67.563-35.373 97.383 13.191 26.234 46.241 29.59 73.505 29.59h163.094c0.005 83.655 68.001 151.483 151.807 151.483 83.828 0 151.763-67.795 151.809-151.483h166.914c17.341 0 57.932 0 71.894-29.511 14.101-29.866-8.467-57.283-39.732-95.21zM519.372 908.364c-50.899 0-92.154-41.161-92.24-91.938h184.451c-0.007 50.774-41.341 91.938-92.219 91.938z m318.74-152.453H204.493c-4.352 0-7.974-0.11-10.995-0.306 5.839-9.073 14.461-20.688 21.477-30.055 34.668-46.546 92.613-112.234 92.613-189.541V350.488c0-126.508 91.635-229.391 211.254-229.391s212.189 102.909 212.189 229.391v185.524c0 79.939 53.44 146.745 92.474 194.117 6.566 8.004 14.433 17.569 20.565 25.702-1.81 0.005-3.779 0.007-5.938 0.007z" p-id="4516"></path></svg>