<?xml version="1.0" standalone="no"?><!DOCTYPE svg PUBLIC "-//W3C//DTD SVG 1.1//EN" "http://www.w3.org/Graphics/SVG/1.1/DTD/svg11.dtd"><svg t="1598339046572" class="icon" viewBox="0 0 1417 1024" version="1.1" xmlns="http://www.w3.org/2000/svg" p-id="6030" xmlns:xlink="http://www.w3.org/1999/xlink" width="276.7578125" height="200"><defs><style type="text/css"></style></defs><path d="M1167.315 248.359c0.145-1.065 0.228-2.297 0.228-3.547 0-3.216-0.546-6.303-1.55-9.176-9.244-53.435-55.809-94.425-112.057-94.425h-798.637c-56.248 0-102.793 40.99-112.117 94.579-0.944 2.678-1.49 5.767-1.49 8.982 0 1.25 0.082 2.481 0.242 3.686-0.159 2.199-0.712 4.428-0.712 6.799v513.442c0.064 62.979 51.099 114.019 114.070 114.087h798.633c62.983-0.064 114.023-51.106 114.087-114.082v-513.408c0-2.381-0.555-4.6-0.698-6.94zM255.298 198.25h798.627c22.807 0.066 42.457 13.511 51.519 32.897l-450.832 265.584-450.962-265.274c9.225-19.728 28.883-33.158 51.686-33.206zM1053.926 825.75h-798.626c-31.487-0.047-56.998-25.562-57.038-57.045v-474.221l441.894 259.935c0.082 0 0.175 0.062 0.257 0.112 3.068 1.662 6.662 2.793 10.477 3.17-5.003-0.921-4.285-0.488-3.526-0.294 1.748 0.392 3.757 0.625 5.818 0.639-0.325 0.050 0.538 0.307 1.39 0.307h0.041c0.851 0 1.705-0.257 2.556-0.339 2.111-0.103 4.1-0.415 6.010-0.922-0.599 0.121 0.11-0.31 0.849-0.567 3.735-1.2 6.966-3.018 9.739-5.359-4.903 3.368-4.811 3.307-4.729 3.255l441.925-259.935v474.219c-0.041 31.488-25.553 57.003-57.035 57.050z" p-id="6031" fill="#008AFF"></path></svg>