<?xml version="1.0" standalone="no"?><!DOCTYPE svg PUBLIC "-//W3C//DTD SVG 1.1//EN" "http://www.w3.org/Graphics/SVG/1.1/DTD/svg11.dtd"><svg t="1596522303400" class="icon" viewBox="0 0 1024 1024" version="1.1" xmlns="http://www.w3.org/2000/svg" p-id="2462" xmlns:xlink="http://www.w3.org/1999/xlink" width="200" height="200"><defs><style type="text/css"></style></defs><path d="M66.56 363.136c0 1.152 0.384 28.672 28.672 28.672s28.672-27.52 28.672-28.672V184.96c0-33.664 27.392-61.056 61.056-61.056h178.176c1.152 0 28.672-0.384 28.672-28.672s-27.52-28.672-28.672-28.672H184.832c-65.28 0-118.272 53.12-118.272 118.272v178.304zM750.208 483.328H273.92c-15.744 0-28.672 12.8-28.672 28.672 0 15.744 12.8 28.672 28.672 28.672h476.288c15.744 0 28.672-12.8 28.672-28.672-0.128-15.744-12.928-28.672-28.672-28.672zM928.768 391.808c28.288 0 28.672-27.52 28.672-28.672V184.832c0-65.28-53.12-118.272-118.272-118.272H660.864c-1.152 0-28.672 0.384-28.672 28.672s27.52 28.672 28.672 28.672H839.04c33.664 0 61.056 27.392 61.056 61.056v178.176c0 1.152 0.384 28.672 28.672 28.672zM95.232 632.192c-28.288 0-28.672 27.52-28.672 28.672v178.304c0 65.28 53.12 118.272 118.272 118.272h178.304c1.152 0 28.672-0.384 28.672-28.672s-27.52-28.672-28.672-28.672H184.96c-33.664 0-61.056-27.392-61.056-61.056V660.864c0-1.152-0.384-28.672-28.672-28.672zM957.44 660.864c0-1.152-0.384-28.672-28.672-28.672s-28.672 27.52-28.672 28.672V839.04c0 33.664-27.392 61.056-61.056 61.056H660.864c-1.152 0-28.672 0.384-28.672 28.672s27.52 28.672 28.672 28.672h178.304c65.28 0 118.272-53.12 118.272-118.272V660.864z" p-id="2463" fill="#008AFF"></path></svg>