<?xml version="1.0" standalone="no"?><!DOCTYPE svg PUBLIC "-//W3C//DTD SVG 1.1//EN" "http://www.w3.org/Graphics/SVG/1.1/DTD/svg11.dtd"><svg t="1596523000271" class="icon" viewBox="0 0 1024 1024" version="1.1" xmlns="http://www.w3.org/2000/svg" p-id="4144" xmlns:xlink="http://www.w3.org/1999/xlink" width="200" height="200"><defs><style type="text/css"></style></defs><path d="M832 832a64 64 0 0 1-64 64H256a64 64 0 0 1-64-64V448h-64v384c0 70.696 57.304 128 128 128h512c70.696 0 128-57.304 128-128V448h-64v384zM768 64H256c-70.696 0-128 57.304-128 128v192h64V192a64 64 0 0 1 64-64h512a64 64 0 0 1 64 64v192h64V192c0-70.696-57.304-128-128-128zM512 576c106.04 0 192-85.96 192-192S618.04 192 512 192 320 277.96 320 384s85.96 192 192 192z m0-320c70.696 0 128 57.304 128 128s-57.304 128-128 128-128-57.304-128-128 57.304-128 128-128zM352 768h320a32 32 0 0 0 0-64H352a32 32 0 0 0 0 64z" p-id="4145" fill="#008AFF"></path></svg>