<?xml version="1.0" standalone="no"?><!DOCTYPE svg PUBLIC "-//W3C//DTD SVG 1.1//EN" "http://www.w3.org/Graphics/SVG/1.1/DTD/svg11.dtd"><svg t="1596522646487" class="icon" viewBox="0 0 1024 1024" version="1.1" xmlns="http://www.w3.org/2000/svg" p-id="3305" xmlns:xlink="http://www.w3.org/1999/xlink" width="200" height="200"><defs><style type="text/css"></style></defs><path d="M460.032 176h160c17.664 0 32-12.544 32-28.032 0-15.424-14.336-27.968-32-27.968h-160c-17.728 0-32 12.544-32 28.032 0 15.424 14.272 27.968 32 27.968z" p-id="3306" fill="#008AFF"></path><path d="M850.24 120h-47.488a32.256 32.256 0 1 0 0 64.64h47.488c6.016 0 17.152 12.224 17.152 32.256v96.96H156.608V216.896a32 32 0 0 1 31.616-32.256h65.28a32.256 32.256 0 1 0 0-64.64h-65.28c-53.12 0-96.192 43.52-96.192 96.896v646.208c0 53.44 43.456 96.896 96.896 96.896h646.144c53.44 0 96.896-43.52 96.896-96.896V216.896c0-53.44-36.672-96.896-81.728-96.896z m17.152 743.04a32.32 32.32 0 0 1-32.32 32.32H188.928a32.32 32.32 0 0 1-32.32-32.256V378.432h710.784v484.672z" p-id="3307" fill="#008AFF"></path><path d="M708.032 232c15.424 0 27.968-15.04 27.968-33.6V97.6c0-18.56-12.544-33.6-28.032-33.6-15.424 0-27.968 15.04-27.968 33.6V198.4c0 18.56 12.544 33.6 28.032 33.6zM344 232c15.488 0 28.032-15.04 28.032-33.6V97.6c0-18.56-12.544-33.6-28.032-33.6s-28.032 15.04-28.032 33.6V198.4c0 18.56 12.544 33.6 28.032 33.6zM688.64 505.664a29.056 29.056 0 0 1 36.608 45.248l-271.616 219.84a29.056 29.056 0 0 1-40.832-4.16L294.528 621.76a29.056 29.056 0 0 1 45.056-36.8l97.92 124.032 251.136-203.328z" p-id="3308" fill="#008AFF"></path></svg>