<?xml version="1.0" standalone="no"?><!DOCTYPE svg PUBLIC "-//W3C//DTD SVG 1.1//EN" "http://www.w3.org/Graphics/SVG/1.1/DTD/svg11.dtd"><svg t="1596102449098" class="icon" viewBox="0 0 1024 1024" version="1.1" xmlns="http://www.w3.org/2000/svg" p-id="3276" xmlns:xlink="http://www.w3.org/1999/xlink" width="200" height="200"><defs><style type="text/css"></style></defs><path d="M805.888 526.336c0-6.144-6.144-6.144 0 0-12.8-12.8-25.088-18.944-31.744-18.944s-25.6 6.144-25.6 12.8a6.144 6.144 0 0 0-6.144 6.144l-192 190.976c-12.8 12.8-12.8 31.744 0 50.688a38.912 38.912 0 0 0 51.2 0l134.656-146.432v349.696a32.256 32.256 0 0 0 64.512 0v-349.696l140.8 139.776a37.888 37.888 0 0 0 51.2 0c12.8-12.8 12.8-31.744 0-50.176l-186.88-184.832z" p-id="3277" fill="#008AFF"></path><path d="M960 495.104a30.72 30.72 0 0 0 32.256-32.256V151.04a167.424 167.424 0 0 0-19.456-76.8c-18.944-31.744-45.056-50.176-76.288-63.488A299.52 299.52 0 0 0 825.856 4.608H203.776c-19.456 0-38.4 0-57.344 6.144C75.776 24.064 30.72 87.552 30.72 151.04v718.336c0 44.544 18.944 82.944 51.2 114.688a131.584 131.584 0 0 0 96.256 37.888h294.912a32.256 32.256 0 1 0 0-64H158.72c-6.144 0-6.144 0-13.312-6.144h-6.144l-6.144-6.144a6.144 6.144 0 0 1-6.144-6.144c-6.144-6.144-6.144 0 0 0l-12.8-12.288-6.144-6.144-6.144-6.144-6.144-6.144V138.752a23.552 23.552 0 0 1 6.144-18.944v-6.656a6.144 6.144 0 0 1 6.144-6.144l6.144-6.144 6.144-6.144 6.144-6.144 6.144-6.144c6.144-6.144 6.144 0 0 0 6.144-6.144 12.8-6.144 18.944-12.8h724.48c6.144 0 12.8 6.144 18.944 12.8h6.144l6.144 6.144 6.144 6.144 6.144 6.144a16.384 16.384 0 0 1 8.192 12.288v350.208a30.72 30.72 0 0 0 32.256 31.744z" p-id="3278" fill="#008AFF"></path><path d="M697.344 227.84a30.208 30.208 0 0 0-32.256-32.256H254.976c-12.8 0-25.088 12.8-25.088 32.256s12.8 31.744 25.088 31.744h410.112c19.456 0 32.256-18.944 32.256-31.744z m-442.368 349.696c-12.8 0-25.088 13.312-25.088 32.256a30.72 30.72 0 0 0 31.744 32.256h160.256a32.256 32.256 0 0 0 0-64.512z m378.368-159.232a30.72 30.72 0 0 0-32.256-32.256H254.976c-12.8 0-25.088 13.312-25.088 32.256s12.8 32.256 25.088 32.256h346.112c18.944 0 32.256-19.456 32.256-32.256z" p-id="3279" fill="#008AFF"></path></svg>