<svg xmlns="http://www.w3.org/2000/svg" width="12.534" height="15" viewBox="0 0 12.534 15">
  <defs>
    <style>
      .cls-1 {
        fill: #04c5b2;
      }
    </style>
  </defs>
  <path id="dingwei" class="cls-1" d="M96.87,0A6.249,6.249,0,0,0,90.6,6.226a6.174,6.174,0,0,0,1.573,4.116.679.679,0,0,0,.1.144l4.072,4.237a.843.843,0,0,0,.064.079.644.644,0,0,0,.208.138.627.627,0,0,0,.709-.117.61.61,0,0,0,.123-.179l4-4.157a.547.547,0,0,0,.094-.123,6.165,6.165,0,0,0,1.591-4.134A6.241,6.241,0,0,0,96.87,0Zm0,8.757a2.8,2.8,0,1,1,2.824-2.8A2.816,2.816,0,0,1,96.867,8.757Z" transform="translate(-90.6)"/>
</svg>
