<svg xmlns="http://www.w3.org/2000/svg" width="46" height="45.565" viewBox="0 0 46 45.565">
  <defs>
    <style>
      .cls-1 {
        fill: #b9c4ff;
      }

      .cls-2 {
        fill: #d4daff;
      }
    </style>
  </defs>
  <g id="组_946" data-name="组 946" transform="translate(-164.358 -271.76)">
    <path id="baojing" class="cls-1" d="M157.074,134.193l-2.547.805a1.357,1.357,0,1,1-.937-2.547l2.547-.805a1.39,1.39,0,0,1,1.742.805A1.3,1.3,0,0,1,157.074,134.193Zm-40.74-2.013a1.343,1.343,0,0,1,.805,1.742,1.628,1.628,0,0,1-1.742.805l-2.547-.805a1.357,1.357,0,1,1,.937-2.547Zm30.954-11.523a1.339,1.339,0,1,1,2.145,1.6l-1.61,2.145a1.417,1.417,0,0,1-1.875.27,1.447,1.447,0,0,1-.27-1.875Zm-25.06,3.617L120.617,122a1.453,1.453,0,0,1,.27-1.875,1.313,1.313,0,0,1,1.875.4l1.61,2.145a1.434,1.434,0,0,1-.27,1.875A1.411,1.411,0,0,1,122.228,124.274Zm11.523-4.554v-2.68a1.34,1.34,0,1,1,2.68,0v2.68a1.34,1.34,0,1,1-2.68,0Zm14.744,20.1v13.4h-26.8v-13.4a13.4,13.4,0,1,1,26.8,0Zm-29.481,18.763v-2.68h32.161v2.68a2.69,2.69,0,0,1-2.68,2.68h-26.8A2.69,2.69,0,0,1,119.013,158.585Zm0,0" transform="translate(52.396 156.06)"/>
    <rect id="矩形_689" data-name="矩形 689" class="cls-2" width="15" height="2" rx="1" transform="translate(180 295)"/>
    <rect id="矩形_692" data-name="矩形 692" class="cls-2" width="11" height="2" rx="1" transform="translate(182 290)"/>
  </g>
</svg>
