<svg xmlns="http://www.w3.org/2000/svg" width="14" height="14" viewBox="0 0 14 14">
  <defs>
    <style>
      .cls-1 {
        fill: none;
      }

      .cls-2 {
        fill: #999;
      }
    </style>
  </defs>
  <g id="组_1093" data-name="组 1093" transform="translate(-79 -171)">
    <rect id="矩形_612" data-name="矩形 612" class="cls-1" width="13" height="13" transform="translate(80 172)"/>
    <rect id="矩形_764" data-name="矩形 764" class="cls-1" width="14" height="14" transform="translate(79 171)"/>
    <g id="图层_2" data-name="图层 2" transform="translate(80 172)">
      <g id="图层_1" data-name="图层 1">
        <path id="路径_1060" data-name="路径 1060" class="cls-2" d="M6.18,2.14A2.56,2.56,0,1,0,8.74,4.7,2.56,2.56,0,0,0,6.18,2.14ZM7.91,4.7A1.74,1.74,0,0,1,6.18,6.43h0A1.73,1.73,0,1,1,7.91,4.7Z" transform="translate(-0.199 -0.118)"/>
        <path id="路径_1061" data-name="路径 1061" class="cls-2" d="M6,0a6,6,0,1,0,6,6A6,6,0,0,0,6,0ZM6,7.848A3.774,3.774,0,0,1,9.59,9.784,5.158,5.158,0,0,1,6,11.2H6A5.168,5.168,0,0,1,2.39,9.735a3.871,3.871,0,0,1,3.59-1.887Zm0-.794A5.168,5.168,0,0,0,1.839,9.116,5.2,5.2,0,0,1,6,.8H6a5.187,5.187,0,0,1,4.123,8.352,5.148,5.148,0,0,0-4.161-2.1Z"/>
      </g>
    </g>
  </g>
</svg>
