<svg xmlns="http://www.w3.org/2000/svg" width="14" height="14" viewBox="0 0 14 14">
  <defs>
    <style>
      .cls-1 {
        fill: #999;
        stroke: #999;
        stroke-width: 0.1px;
      }

      .cls-2 {
        fill: none;
      }
    </style>
  </defs>
  <g id="组_869" data-name="组 869" transform="translate(-67 -171)">
    <path id="laiyuan" class="cls-1" d="M6,64a6,6,0,1,0,6,6A6,6,0,0,0,6,64ZM6,75.2A5.2,5.2,0,1,1,11.2,70,5.2,5.2,0,0,1,6,75.2Zm.341-1.8,2.368-2.369a.383.383,0,0,0-.542-.542L6.4,72.258V66.8a.4.4,0,1,0-.8,0v5.458L3.833,70.491a.383.383,0,0,0-.542.542L5.659,73.4A.44.44,0,0,0,6.341,73.4Z" transform="translate(68 108)"/>
    <rect id="矩形_613" data-name="矩形 613" class="cls-2" width="14" height="14" transform="translate(67 171)"/>
  </g>
</svg>
