<svg xmlns="http://www.w3.org/2000/svg" width="45" height="46" viewBox="0 0 45 46">
  <defs>
    <style>
      .cls-1 {
        fill: #b9c4ff;
      }
    </style>
  </defs>
  <path id="审核" class="cls-1" d="M17.93,48.556H53.836c1.166-.116,1.049.233,1.049-1.048V44.6c0-1.63-.35-1.98-1.982-1.98H45.909a5.165,5.165,0,0,1-1.282-1.863c-4.08-4.542-1.749-7.57.816-11.762a10.553,10.553,0,0,0,1.282-1.863,12.63,12.63,0,0,0,1.632-6.289,13.174,13.174,0,0,0-26.347,0,12.928,12.928,0,0,0,2.8,8.035c2.8,4.425,7.345,8.035,0,13.742H17.813a1.783,1.783,0,0,0-1.982,1.98v3.028C15.831,48.789,16.647,48.556,17.93,48.556Zm38.938,1.98H13.849A1.044,1.044,0,0,0,12.8,51.584v1.048a1.044,1.044,0,0,0,1.049,1.048h42.9A1.044,1.044,0,0,0,57.8,52.632V51.584a1.027,1.027,0,0,0-.933-1.048Z" transform="translate(-12.8 -7.68)"/>
</svg>
