<svg xmlns="http://www.w3.org/2000/svg" viewBox="0 0 11.67 12.2"><defs><style>.cls-1{fill:#999;}</style></defs><title>shijian</title><g id="图层_2" data-name="图层 2"><g id="图层_1-2" data-name="图层 1"><path class="cls-1" d="M11.34,7.68a.51.51,0,0,0-.67.29A4.92,4.92,0,0,1,6.1,11.14,5,5,0,0,1,2.56,2.6,5,5,0,0,1,6.1,1.06a4.9,4.9,0,0,1,4.53,3.07.52.52,0,0,0,.51.44h0a.52.52,0,0,0,.5-.41.45.45,0,0,0,0-.2V1.73a.52.52,0,1,0-1,0v.4A6,6,0,0,0,6.1,0a6.1,6.1,0,0,0,0,12.2h0a6,6,0,0,0,5.53-3.84A.53.53,0,0,0,11.34,7.68Z"/><path class="cls-1" d="M6.1,1.72a.52.52,0,0,0-.52.52V6.1a.53.53,0,0,0,.52.53H9a.53.53,0,0,0,.51-.5.55.55,0,0,0-.14-.39A.58.58,0,0,0,9,5.57H6.62V2.24A.52.52,0,0,0,6.1,1.72Z"/></g></g></svg>