<svg xmlns="http://www.w3.org/2000/svg" width="16" height="11.128" viewBox="0 0 16 11.128">
  <defs>
    <style>
      .cls-1 {
        fill: #04c5b2;
      }
    </style>
  </defs>
  <path id="shipin2" class="cls-1" d="M127.726,234.635c-.372-.234-3.164,1.079-3.164,1.079v-.138a2.111,2.111,0,0,0-2.147-2.075h-8.268A2.114,2.114,0,0,0,112,235.577v6.976a2.111,2.111,0,0,0,2.147,2.075h8.27a2.111,2.111,0,0,0,2.147-2.075v-.17s2.807,1.3,3.164,1.079S128.1,234.869,127.726,234.635Zm-11.17,7.764v-6.685L122,239.055Zm0,0" transform="translate(-112 -233.5)"/>
</svg>
