<svg xmlns="http://www.w3.org/2000/svg" width="14" height="14" viewBox="0 0 14 14">
  <defs>
    <style>
      .cls-1 {
        fill: #999;
      }

      .cls-2 {
        fill: none;
      }
    </style>
  </defs>
  <g id="组_870" data-name="组 870" transform="translate(-67 -194)">
    <path id="gengxinshijian" class="cls-1" d="M72.784,70.429H69.856A.425.425,0,0,1,69.438,70V66.143a.418.418,0,1,1,.837,0v3.429h2.51a.429.429,0,0,1,0,.857ZM74.9,68.371a.425.425,0,0,1-.418-.429V65.629a.418.418,0,1,1,.837,0v2.314A.425.425,0,0,1,74.9,68.371ZM69.856,76a6,6,0,0,1,0-12,5.837,5.837,0,0,1,5.438,3.771.439.439,0,0,1-.23.557.421.421,0,0,1-.544-.236,5,5,0,0,0-4.664-3.236,5.144,5.144,0,0,0,0,10.286,5,5,0,0,0,4.664-3.236.421.421,0,0,1,.544-.236.439.439,0,0,1,.23.557A5.837,5.837,0,0,1,69.856,76Z" transform="translate(4 131)"/>
    <rect id="矩形_614" data-name="矩形 614" class="cls-2" width="14" height="14" transform="translate(67 194)"/>
  </g>
</svg>
