<svg xmlns="http://www.w3.org/2000/svg" viewBox="0 0 15.23 14.3"><defs><style>.cls-1{fill:#666;}</style></defs><title>tucenng</title><g id="图层_2" data-name="图层 2"><g id="图层_1-2" data-name="图层 1"><path class="cls-1" d="M.65,5.57,6.73,8.29a1.71,1.71,0,0,0,.9.26,1.62,1.62,0,0,0,.83-.23l6.12-2.75.07-.05a1.07,1.07,0,0,0,.26-.26,1.25,1.25,0,0,0-.31-1.77L8.51.28a1.59,1.59,0,0,0-1.77,0L.58,3.51a1.26,1.26,0,0,0-.3.31A1.24,1.24,0,0,0,.65,5.57ZM2.29,4.48,7.61,1.61l5.33,2.87L7.61,6.72Z"/><path class="cls-1" d="M14.29,6.74c-.22.12-.44.22-.54.27L7.61,9.84,1.23,6.9.6,6.58,0,6.23v.69C0,7.2,0,8.13.65,8.45l6.08,2.72a1.71,1.71,0,0,0,.9.26,1.62,1.62,0,0,0,.83-.23l6.12-2.75h0c.62-.28.64-1.39.64-1.52V6.27Z"/><path class="cls-1" d="M13.75,9.89,7.61,12.72,4.39,11.19l-3-1.31C1.26,9.8.89,9.62.6,9.46L0,9.11V9.8c0,.28,0,1.21.65,1.53l6.07,2.72a1.75,1.75,0,0,0,.9.25,1.54,1.54,0,0,0,.84-.23l6.12-2.75c.62-.29.64-1.4.64-1.52V9.15l-.93.47Z"/></g></g></svg>