<svg xmlns="http://www.w3.org/2000/svg" width="20" height="20" viewBox="0 0 20 20">
  <defs>
    <style>
      .cls-1 {
        fill: #fb6464;
      }

      .cls-2 {
        fill: none;
      }
    </style>
  </defs>
  <g id="组_1087" data-name="组 1087" transform="translate(-24 -294)">
    <g id="组_1086" data-name="组 1086" transform="translate(-987 3034.218)">
      <path id="减去_5" data-name="减去 5" class="cls-1" d="M14.128,10.352H1.069A1.073,1.073,0,0,1,0,9.283V0H15.2V9.283A1.07,1.07,0,0,1,14.128,10.352ZM7.518,6.183h0L9.061,7.726A.727.727,0,1,0,10.09,6.7L8.547,5.153,10.09,3.61A.728.728,0,0,0,9.061,2.58L7.518,4.124,5.974,2.58a.728.728,0,1,0-1.03,1.03L6.488,5.153,4.945,6.7a.728.728,0,0,0,1.03,1.03L7.517,6.183Z" transform="translate(1013 -2732.55)"/>
      <path id="路径_1055" data-name="路径 1055" class="cls-1" d="M90.814,47.816h-15.2V46.254a1.571,1.571,0,0,1,1.563-1.563h4.472a1.564,1.564,0,0,1,3.126,0h4.472a1.571,1.571,0,0,1,1.563,1.563Z" transform="translate(937.383 -2781.408)"/>
    </g>
    <rect id="矩形_755" data-name="矩形 755" class="cls-2" width="20" height="20" transform="translate(24 294)"/>
  </g>
</svg>
