<svg xmlns="http://www.w3.org/2000/svg" width="20" height="20" viewBox="0 0 20 20">
  <defs>
    <style>
      .cls-1 {
        fill: #04c5b2;
      }

      .cls-2 {
        fill: none;
      }
    </style>
  </defs>
  <g id="组_1079" data-name="组 1079" transform="translate(-26 -150)">
    <g id="待审核" transform="translate(-47.617 108.81)">
      <path id="减去_3" data-name="减去 3" class="cls-1" d="M14.11,10.339H1.068a1.052,1.052,0,0,1-.414-.085,1.076,1.076,0,0,1-.181-.1,1.087,1.087,0,0,1-.289-.289,1.075,1.075,0,0,1-.1-.181A1.052,1.052,0,0,1,0,9.271V0H15.178V9.271a1.051,1.051,0,0,1-.084.414,1.073,1.073,0,0,1-.1.181,1.086,1.086,0,0,1-.289.289,1.074,1.074,0,0,1-.181.1A1.051,1.051,0,0,1,14.11,10.339Zm-9.53-6.5a.76.76,0,0,0-.3.061.783.783,0,0,0-.412.412.76.76,0,0,0-.061.3.772.772,0,0,0,.2.52L5.645,6.769l.565.565a.676.676,0,0,0,.961,0h0l4.012-4.013a.713.713,0,0,0,0-1.013l-.032-.033a.711.711,0,0,0-.237-.155.732.732,0,0,0-.54,0,.711.711,0,0,0-.237.155L6.876,5.538a.2.2,0,0,1-.281,0L5.1,4.044a.772.772,0,0,0-.52-.2Z" transform="translate(75.617 48.851)"/>
      <path id="路径_1058" data-name="路径 1058" class="cls-1" d="M90.8,47.81H75.617V46.25a1.569,1.569,0,0,1,1.561-1.561h4.467a1.563,1.563,0,0,1,3.122,0h4.467A1.569,1.569,0,0,1,90.8,46.25Z" transform="translate(0 0)"/>
    </g>
    <rect id="矩形_756" data-name="矩形 756" class="cls-2" width="20" height="20" transform="translate(26 150)"/>
  </g>
</svg>
