<svg xmlns="http://www.w3.org/2000/svg" viewBox="0 0 19.5 19.5"><defs><style>.cls-1{fill:#4661ff;}</style></defs><title>zuoye</title><g id="图层_2" data-name="图层 2"><g id="图层_1-2" data-name="图层 1"><path class="cls-1" d="M16.33,0H3.17A3.2,3.2,0,0,0,0,3.17V16.33A3.19,3.19,0,0,0,3.17,19.5H16.33a3.19,3.19,0,0,0,3.17-3.17V3.17A3.2,3.2,0,0,0,16.33,0ZM2,3.17A1.22,1.22,0,0,1,3.17,2H16.33a1.22,1.22,0,0,1,1.21,1.21V16.33a1.22,1.22,0,0,1-1.21,1.21H3.17A1.22,1.22,0,0,1,2,16.33Z"/><path class="cls-1" d="M5.36,10.73h5.85a1,1,0,0,0,1-1,1,1,0,0,0-1-1H5.36a1,1,0,0,0-.69.29,1,1,0,0,0,.69,1.67Z"/><path class="cls-1" d="M12.69,13.15H5.37a1,1,0,0,0-1,1,1,1,0,0,0,1,1h7.32a1,1,0,0,0,1-1A1,1,0,0,0,12.69,13.15Zm0,.25Z"/><path class="cls-1" d="M5.36,6.35h8.78a1,1,0,1,0,0-2H5.36a1,1,0,0,0-.69.28,1,1,0,0,0-.29.69A1,1,0,0,0,5.36,6.35Z"/></g></g></svg>