<svg xmlns="http://www.w3.org/2000/svg" width="22" height="22" viewBox="0 0 22 22">
  <defs>
    <style>
      .cls-1 {
        fill: #4561ff;
      }

      .cls-2 {
        fill: none;
      }
    </style>
  </defs>
  <g id="组_893" data-name="组 893" transform="translate(-18 -371)">
    <path id="fuhao-huizhi" class="cls-1" d="M68.624,65.131l-3.457,3.457a1.222,1.222,0,0,0,0,1.729l3.457,3.455,2.592-2.592-.863-.863-1.729,1.729-.863-.863,1.729-1.729-.863-.863L66.9,70.319l-.863-.863L69.491,66l3.453,3.454.864-.864-3.457-3.458a1.219,1.219,0,0,0-1.726,0ZM81.586,78.092,78.129,81.55l-.863-.864,1.728-1.728-.863-.863L76.4,79.823l-.863-.863,1.728-1.728-.864-.864-2.6,2.588,3.457,3.457a1.222,1.222,0,0,0,1.729,0l3.457-3.457a1.222,1.222,0,0,0,0-1.729l-3.459-3.455-.864.863ZM77.205,67.721l2.656,2.654-.885.885L76.32,68.6Zm-8.852,8.848,2.656,2.654-.885.885-2.656-2.654ZM77.2,65.952a2.506,2.506,0,0,1,3.548,0l.877.876a2.51,2.51,0,0,1,0,3.545L70.654,81.347l-5.4.974.974-5.4ZM70.234,80,80.761,69.478a1.248,1.248,0,0,0-.016-1.761l-.876-.876a1.243,1.243,0,0,0-1.763-.016L67.578,77.346l-.554,3.208L70.235,80Z" transform="translate(-44.808 308.229)"/>
    <rect id="矩形_632" data-name="矩形 632" class="cls-2" width="22" height="22" transform="translate(18 371)"/>
  </g>
</svg>
