<svg t="1566374543856" class="icon" viewBox="0 0 1024 1024" version="1.1" xmlns="http://www.w3.org/2000/svg" p-id="1200" width="22" height="22"><path d="M804.16 530.56l-384-388.8-87.36 89.6 335.04 340.48z m-168.32 99.84L265.28 254.08a32 32 0 0 1 0-45.12l133.44-135.36a32 32 0 0 1 45.44 0l442.56 449.6a32 32 0 0 1-13.44 52.8l-205.44 64a32 32 0 0 1-32-9.6zM192 448a32 32 0 0 1 64 0v416a32 32 0 0 1-64 0z" p-id="1201" fill="#999999"></path><path d="M329.28 585.28a32 32 0 0 1 45.44 45.44l-32 32A32 32 0 0 1 320 672H224a32 32 0 0 1 0-64h82.88zM201.28 310.72a32 32 0 0 1 45.44-45.44l352 352a32 32 0 0 1-45.44 45.44z" p-id="1202" fill="#999999"></path></svg>