<svg xmlns="http://www.w3.org/2000/svg" width="22" height="22" viewBox="0 0 22 22">
  <defs>
    <style>
      .cls-1 {
        fill: #999;
        stroke: #999;
        stroke-width: 0.4px;
      }

      .cls-2 {
        fill: none;
      }
    </style>
  </defs>
  <g id="组_889" data-name="组 889" transform="translate(-19 -231)">
    <g id="组_641" data-name="组 641" transform="translate(23 233)">
      <g id="组_638" data-name="组 638" transform="translate(0 12.344)">
        <path id="路径_939" data-name="路径 939" class="cls-1" d="M1866.488,430.394h-11.02a.45.45,0,0,1-.37-.707l3.317-4.756a.45.45,0,1,1,.738.516l-2.823,4.048h10.158a.45.45,0,1,1,0,.9Z" transform="translate(-1855.017 -424.738)"/>
      </g>
      <g id="组_639" data-name="组 639" transform="translate(0.001 1.517)">
        <path id="路径_940" data-name="路径 940" class="cls-1" d="M1863.058,425.793a8.138,8.138,0,0,1-4.526-1.436c-3.335-2.253-4.5-6.377-2.6-9.193a5.688,5.688,0,0,1,4.252-2.42,8.3,8.3,0,0,1,8.505,5.745,5.682,5.682,0,0,1-.658,4.846h0a5.684,5.684,0,0,1-4.25,2.421A7.157,7.157,0,0,1,1863.058,425.793Zm-2.153-12.185a6.158,6.158,0,0,0-.633.032,4.805,4.805,0,0,0-3.6,2.029c-1.623,2.4-.565,5.969,2.36,7.943a7.094,7.094,0,0,0,4.653,1.25,4.8,4.8,0,0,0,3.6-2.029h0a4.8,4.8,0,0,0,.539-4.094,7.091,7.091,0,0,0-2.9-3.849A7.224,7.224,0,0,0,1860.905,413.608Z" transform="translate(-1855.018 -412.708)"/>
      </g>
      <g id="组_640" data-name="组 640" transform="translate(6.513 0)">
        <path id="路径_941" data-name="路径 941" class="cls-1" d="M1862.7,419.531a.449.449,0,0,1-.38-.69l4.821-7.61a.45.45,0,1,1,.76.482l-4.821,7.61A.449.449,0,0,1,1862.7,419.531Z" transform="translate(-1862.255 -411.022)"/>
      </g>
    </g>
    <rect id="矩形_628" data-name="矩形 628" class="cls-2" width="22" height="22" transform="translate(19 231)"/>
  </g>
</svg>
