<svg xmlns="http://www.w3.org/2000/svg" width="22" height="22" viewBox="0 0 22 22">
  <defs>
    <style>
      .cls-1 {
        fill: #4561ff;
        stroke: #4561ff;
        stroke-width: 0.4px;
      }

      .cls-2 {
        fill: none;
      }
    </style>
  </defs>
  <g id="组_890" data-name="组 890" transform="translate(-19 -267)">
    <path id="路径_951" data-name="路径 951" class="cls-1" d="M1870.624,384.069a3.206,3.206,0,0,0-3-.9l2.363-5.419a.449.449,0,0,0-.175-.562l-2.335-1.45.269-4.622a.451.451,0,0,0-.449-.476h-1.592V368.5a.449.449,0,0,0-.45-.45h-6.916a.449.449,0,0,0-.45.45v2.137H1856.3a.451.451,0,0,0-.449.476l.27,4.622-2.337,1.45a.448.448,0,0,0-.174.562l2.753,6.314,0,.005a4.788,4.788,0,0,1-2.875-1.013.45.45,0,0,0-.568.7c.108.088,2.682,2.141,4.98.747a3.893,3.893,0,0,1,3.605-.168.422.422,0,0,0,.122.059,6.412,6.412,0,0,0,2.73.613,5.718,5.718,0,0,0,2.816-.732,2.359,2.359,0,0,1,2.816.436.45.45,0,1,0,.631-.641Zm-12.283-12.529a.45.45,0,0,0,.45-.45v-2.137h6.015v2.137a.45.45,0,0,0,.45.45h1.563l-.208,3.584-4.587-3.383c-.008-.006-.019,0-.027-.009a.437.437,0,0,0-.24-.079h0a.444.444,0,0,0-.24.08c-.008.005-.019,0-.026.009l-4.5,3.374-.208-3.577Zm-.9,12.193c-.073.043-.147.076-.22.11a.454.454,0,0,0-.031-.14l-2.6-5.956,2.233-1.385c.005,0,.006-.009.012-.013s.014,0,.02-.01l4.453-3.337v10.3A4.7,4.7,0,0,0,1857.437,383.732Zm4.771-.068V372.994l4.538,3.347c.006,0,.012,0,.016,0s.008.012.015.015l2.232,1.385-2.567,5.888A5.338,5.338,0,0,1,1862.208,383.665Z" transform="translate(-1831.758 -98.049)"/>
    <rect id="矩形_629" data-name="矩形 629" class="cls-2" width="22" height="22" transform="translate(19 267)"/>
  </g>
</svg>
