<?xml version="1.0" standalone="no"?><!DOCTYPE svg PUBLIC "-//W3C//DTD SVG 1.1//EN" "http://www.w3.org/Graphics/SVG/1.1/DTD/svg11.dtd"><svg t="1546929471326" class="icon" style="" viewBox="0 0 1024 1024" version="1.1" xmlns="http://www.w3.org/2000/svg" p-id="2659" xmlns:xlink="http://www.w3.org/1999/xlink" width="64" height="64"><defs><style type="text/css"></style></defs><path d="M829.44 476.16c7.68-15.36 2.56-33.28-12.8-40.96s-33.28-2.56-40.96 12.8c-48.64 87.04-140.8 140.8-240.64 140.8s-192-53.76-240.64-140.8c-7.68-15.36-28.16-20.48-40.96-12.8-17.92 7.68-23.04 25.6-15.36 40.96 20.48 38.4 51.2 71.68 84.48 99.84l-20.48 20.48c-12.8 12.8-12.8 30.72 0 43.52 5.12 5.12 12.8 10.24 20.48 10.24s15.36-2.56 20.48-10.24l30.72-30.72c38.4 20.48 81.92 33.28 128 38.4v33.28c0 17.92 12.8 30.72 30.72 30.72s30.72-12.8 30.72-30.72v-33.28c46.08-5.12 89.6-17.92 128-38.4l30.72 30.72c5.12 5.12 12.8 10.24 20.48 10.24s15.36-2.56 20.48-10.24c12.8-12.8 12.8-30.72 0-43.52l-20.48-20.48c35.84-28.16 64-61.44 87.04-99.84z" p-id="2660" fill="#bfbfbf"></path></svg>