<?xml version="1.0" standalone="no"?><!DOCTYPE svg PUBLIC "-//W3C//DTD SVG 1.1//EN" "http://www.w3.org/Graphics/SVG/1.1/DTD/svg11.dtd"><svg t="1546929542726" class="icon" style="" viewBox="0 0 1024 1024" version="1.1" xmlns="http://www.w3.org/2000/svg" p-id="3095" xmlns:xlink="http://www.w3.org/1999/xlink" width="64" height="64"><defs><style type="text/css"></style></defs><path d="M512 204.8C233.984 204.8 51.2 483.84 51.2 483.84S186.368 819.2 512 819.2s460.8-335.36 460.8-335.36S790.016 204.8 512 204.8z m0 502.272A200.192 200.192 0 0 1 307.2 512a200.192 200.192 0 0 1 204.8-195.072A200.192 200.192 0 0 1 716.8 512a200.192 200.192 0 0 1-204.8 195.072zM512 409.6a102.4 102.4 0 1 0 102.4 102.4 102.4 102.4 0 0 0-102.4-102.4z" fill="#bfbfbf" p-id="3096"></path></svg>