<?xml version="1.0" standalone="no"?><!DOCTYPE svg PUBLIC "-//W3C//DTD SVG 1.1//EN" "http://www.w3.org/Graphics/SVG/1.1/DTD/svg11.dtd"><svg t="1544859237167" class="icon" style="" viewBox="0 0 1024 1024" version="1.1" xmlns="http://www.w3.org/2000/svg" p-id="616" xmlns:xlink="http://www.w3.org/1999/xlink" width="64" height="64"><defs><style type="text/css"></style></defs><path d="M584.533333 742.4h-140.8c-8.533333 0-17.066667-8.533333-17.066666-17.066667s8.533333-17.066667 17.066666-17.066666h140.8c8.533333 0 17.066667 8.533333 17.066667 17.066666s-8.533333 17.066667-17.066667 17.066667z" fill="#108ee9" p-id="617"></path><path d="M691.2 896H332.8c-46.933333 0-89.6-38.4-89.6-89.6V217.6C247.466667 170.666667 285.866667 128 332.8 128h358.4c46.933333 0 89.6 38.4 89.6 89.6v588.8c-4.266667 46.933333-42.666667 89.6-89.6 89.6zM332.8 166.4c-29.866667 0-51.2 25.6-51.2 51.2v588.8c0 29.866667 25.6 51.2 51.2 51.2h358.4c29.866667 0 51.2-25.6 51.2-51.2V217.6c0-29.866667-25.6-51.2-51.2-51.2H332.8z" fill="#108ee9" p-id="618"></path></svg>