<?xml version="1.0" standalone="no"?><!DOCTYPE svg PUBLIC "-//W3C//DTD SVG 1.1//EN" "http://www.w3.org/Graphics/SVG/1.1/DTD/svg11.dtd"><svg t="1544859288407" class="icon" style="" viewBox="0 0 1024 1024" version="1.1" xmlns="http://www.w3.org/2000/svg" p-id="971" xmlns:xlink="http://www.w3.org/1999/xlink" width="64" height="64"><defs><style type="text/css"></style></defs><path d="M820.112891 957.035866 204.754872 957.035866c-14.145162 0-25.611308-11.466146-25.611308-25.611308L179.143565 452.847785c0-14.145162 11.467169-25.611308 25.611308-25.611308l615.356996 0c14.145162 0 25.611308 11.467169 25.611308 25.611308l0 478.576773C845.724199 945.56972 834.258053 957.035866 820.112891 957.035866zM230.367203 905.813251l564.133358 0L794.500561 478.459093 230.367203 478.459093 230.367203 905.813251z" p-id="972" fill="#108ee9"></path><path d="M545.456485 835.252195l-66.073858 0c-14.145162 0-25.611308-11.466146-25.611308-25.611308l0-91.517343c-22.773679-17.823947-36.411281-45.074591-36.411281-74.245981 0-52.274574 42.650379-94.803179 95.074356-94.803179 52.410674 0 95.048773 42.528606 95.048773 94.803179 0 29.157064-13.638625 56.406684-36.414351 74.240865l0 91.52246C571.067792 823.786049 559.601646 835.252195 545.456485 835.252195zM504.993934 784.028557l14.851243 0 0-79.622432c0-9.376555 5.123694-18.004049 13.357216-22.490224 14.22191-7.749498 23.057135-22.324448 23.057135-38.039361 0-24.029276-19.659759-43.579541-43.825135-43.579541-24.178679 0-43.850717 19.549242-43.850717 43.579541 0 15.724123 8.829086 30.297027 23.041786 38.033221 8.239662 4.484128 13.368472 13.113669 13.368472 22.49534L504.993934 784.028557z" p-id="973" fill="#108ee9"></path><path d="M778.866489 478.472396c-14.145162 0-25.611308-11.467169-25.611308-25.611308 0-37.637202-0.007163-94.437859-0.025583-97.483218 0-0.019443-0.001023-0.038886-0.001023-0.058328-1.401929-130.899282-109.422132-237.394758-240.794182-237.394758-131.730207 0-239.749386 106.744139-240.84944 237.962693l0 96.972589c0 14.145162-11.467169 25.611308-25.611308 25.611308s-25.611308-11.467169-25.611308-25.611308L220.362338 355.796402c0-0.067538 0-0.134053 0-0.201591 0.60989-77.311807 31.270191-149.895939 86.333274-204.3829C361.770975 96.714715 434.837084 66.702168 512.434393 66.702168c77.43358 0 150.387126 29.915333 205.420533 84.234473 55.014988 54.30072 85.767386 126.690424 86.594217 203.834408l-0.00307 0c0.014326 2.079358 0.031722 14.243399 0.031722 98.089016C804.477796 467.005226 793.01165 478.472396 778.866489 478.472396z" p-id="974" fill="#108ee9"></path></svg>