<svg xmlns="http://www.w3.org/2000/svg" width="18" height="18" viewBox="0 0 18 18">
  <defs>
    <style>
      .cls-1 {
        fill: #666;
      }

      .cls-2 {
        fill: none;
      }
    </style>
  </defs>
  <g id="组_1095" data-name="组 1095" transform="translate(-27 -182)">
    <path id="编辑" class="cls-1" d="M98.665,69.933a.646.646,0,0,1-.4.4l-7.99,7.99A3.08,3.08,0,0,1,89,79.09L85.733,80.1a.811.811,0,0,1-1.013-1.013l1.005-3.27a3.08,3.08,0,0,1,.767-1.272l9.6-9.6a2.675,2.675,0,1,1,3.783,3.783Zm-3.524-2.207-7.733,7.731a1.783,1.783,0,0,0-.443.737l-.736,2.391,2.391-.735a1.783,1.783,0,0,0,.738-.443l7.731-7.732-1.949-1.949Zm.916-.918,1.949,1.95.956-.956a1.378,1.378,0,1,0-1.949-1.949ZM85.43,82.153h16.213a.649.649,0,0,0,0-1.3H85.43a.649.649,0,1,0,0,1.3Z" transform="translate(-57.684 117.847)"/>
    <rect id="矩形_770" data-name="矩形 770" class="cls-2" width="18" height="18" transform="translate(27 182)"/>
  </g>
</svg>
