<svg xmlns="http://www.w3.org/2000/svg" width="18" height="18" viewBox="0 0 18 18">
  <defs>
    <style>
      .cls-1 {
        fill: #666;
      }

      .cls-2 {
        fill: none;
      }
    </style>
  </defs>
  <g id="组_1097" data-name="组 1097" transform="translate(-27 -310)">
    <path id="客服" class="cls-1" d="M88.182,84.6v1.252a2.333,2.333,0,0,1-2.333,2.333H84.182a2.333,2.333,0,0,1-2.333-2.333V84.182a2.333,2.333,0,0,1,2.333-2.333h1.667a2.321,2.321,0,0,1,1,.225V79.182a7.667,7.667,0,1,0-15.333,0v2.892a2.325,2.325,0,0,1,1-.225h1.667a2.333,2.333,0,0,1,2.333,2.333v1.667a2.333,2.333,0,0,1-2.333,2.333H72.515a2.333,2.333,0,0,1-2.333-2.333V79.182a9,9,0,0,1,18,0Zm-1.333.415v-.829a1,1,0,0,0-1-1H84.182a1,1,0,0,0-1,1v1.667a1,1,0,0,0,1,1h1.667a1,1,0,0,0,1-1v-.838Zm-15.333-.829v1.667a1,1,0,0,0,1,1h1.667a1,1,0,0,0,1-1V84.182a1,1,0,0,0-1-1H72.515A1,1,0,0,0,71.515,84.182Z" transform="translate(-43.182 239.818)"/>
    <rect id="矩形_772" data-name="矩形 772" class="cls-2" width="18" height="18" transform="translate(27 310)"/>
  </g>
</svg>
