<svg xmlns="http://www.w3.org/2000/svg" width="18" height="18" viewBox="0 0 18 18">
  <defs>
    <style>
      .cls-1 {
        fill: #666;
      }

      .cls-2 {
        fill: none;
      }
    </style>
  </defs>
  <g id="组_1096" data-name="组 1096" transform="translate(-27 -246)">
    <g id="订单" transform="translate(-103.545 175.818)">
      <path id="路径_1047" data-name="路径 1047" class="cls-1" d="M134.712,70.182h9.167a3.167,3.167,0,0,1,3.167,3.167V85.015a3.167,3.167,0,0,1-3.167,3.167h-9.167a3.167,3.167,0,0,1-3.167-3.167V73.348A3.167,3.167,0,0,1,134.712,70.182Zm0,1.333a1.833,1.833,0,0,0-1.833,1.833V85.015a1.833,1.833,0,0,0,1.833,1.833h9.167a1.833,1.833,0,0,0,1.833-1.833V73.348a1.833,1.833,0,0,0-1.833-1.833Z"/>
      <path id="路径_1048" data-name="路径 1048" class="cls-1" d="M295.848,337.424h7.5a.667.667,0,1,0,0-1.333h-7.5a.667.667,0,0,0,0,1.333Zm0,4.167h4.167a.667.667,0,0,0,0-1.333h-4.167a.667.667,0,0,0,0,1.333Z" transform="translate(-160.303 -260.492)"/>
    </g>
    <rect id="矩形_771" data-name="矩形 771" class="cls-2" width="18" height="18" transform="translate(27 246)"/>
  </g>
</svg>
