<svg xmlns="http://www.w3.org/2000/svg" width="18" height="18" viewBox="0 0 18 18">
  <defs>
    <style>
      .cls-1 {
        fill: #666;
      }

      .cls-2 {
        fill: none;
      }
    </style>
  </defs>
  <g id="组_1098" data-name="组 1098" transform="translate(-27 -370)">
    <path id="设置" class="cls-1" d="M106.542,87.954l2.845,4.928a3.309,3.309,0,0,1,0,3.309l-2.845,4.928a3.309,3.309,0,0,1-2.865,1.654H97.985a3.308,3.308,0,0,1-2.864-1.654l-2.848-4.929a3.309,3.309,0,0,1,0-3.309l2.845-4.928A3.309,3.309,0,0,1,97.985,86.3h5.691a3.308,3.308,0,0,1,2.864,1.654Zm-2.865-.261H97.985a1.915,1.915,0,0,0-1.659.958l-2.846,4.928a1.916,1.916,0,0,0,0,1.916l2.845,4.928a1.916,1.916,0,0,0,1.659.958h5.691a1.915,1.915,0,0,0,1.659-.958l2.846-4.928a1.916,1.916,0,0,0,0-1.916l-2.845-4.928A1.916,1.916,0,0,0,103.676,87.693Zm-2.845,10.152a3.309,3.309,0,1,1,3.309-3.309A3.309,3.309,0,0,1,100.831,97.845Zm0-1.393a1.916,1.916,0,1,0-1.916-1.916A1.916,1.916,0,0,0,100.831,96.452Z" transform="translate(-64.83 284.7)"/>
    <rect id="矩形_773" data-name="矩形 773" class="cls-2" width="18" height="18" transform="translate(27 370)"/>
  </g>
</svg>
